<svg width="30px" height="31px" viewBox="0 0 30 31" version="1.1" xmlns="http://www.w3.org/2000/svg" xmlns:xlink="http://www.w3.org/1999/xlink">
    <g id="Icons" stroke="none" stroke-width="1" fill="none" fill-rule="evenodd">
        <g id="Bag" transform="translate(-0.097875, 0.612496)" fill-rule="nonzero" fill="#161616">
            <path d="M20.8055721,11.515597 L18.2557454,11.515597 L18.2557454,5.93147663 C18.2557454,4.14659796 16.8023442,2.69319676 15.0174655,2.69319676 C13.2325869,2.69319676 11.7791857,4.14659796 11.7791857,5.93147663 L11.7791857,11.515597 L9.22935902,11.515597 L9.22935902,5.93147663 C9.22935902,2.7441933 11.8216828,0.1433701 15.0174655,0.1433701 C18.2047489,0.1433701 20.8055721,2.73569388 20.8055721,5.93147663 L20.8055721,11.515597 L20.8055721,11.515597 Z" id="Shape"></path>
            <path d="M27.0611468,9.29724783 L27.0611468,26.9845455 L3.16077156,26.9845455 L3.16077156,9.29724783 L27.0611468,9.29724783 L27.0611468,9.29724783 Z M29.6109735,6.74742116 L0.610944894,6.74742116 L0.610944894,29.5343721 L29.6024741,29.5343721 L29.6024741,6.74742116 L29.6109735,6.74742116 Z" id="Shape"></path>
        </g>
    </g>
</svg>
