<svg width="30px" height="28px" viewBox="0 0 30 28" version="1.1" xmlns="http://www.w3.org/2000/svg" xmlns:xlink="http://www.w3.org/1999/xlink">
    <g id="Icons" stroke="none" stroke-width="1" fill="none" fill-rule="evenodd">
        <g id="Heart" transform="translate(-0.190290, 0.094428)" fill-rule="nonzero" fill="#161616">
            <path d="M21.0149459,2.60810238 C24.278724,2.60810238 26.9220443,5.3704146 26.9220443,8.77868291 C26.9220443,15.2977398 19.3405597,21.0773469 14.8103677,24.1371389 C10.2801756,21.0773469 2.69869103,15.2892403 2.69869103,8.77868291 C2.69869103,5.3704146 5.34201134,2.60810238 8.60578947,2.60810238 L8.85227271,2.60810238 C11.6910797,2.60810238 14.1304139,4.23999145 14.6998752,6.84931407 C14.716874,6.90881002 14.8103677,7.41877536 14.8103677,7.41877536 C14.8103677,7.41877536 14.9123608,6.91730945 14.9208602,6.85781349 C15.481822,4.23999145 17.9296556,2.60810238 20.7769621,2.60810238 L21.0149459,2.60810238 L21.0149459,2.60810238 Z M21.0149459,0.0582757181 L20.7769621,0.0582757181 C18.822095,0.0582757181 17.011718,0.619237584 15.5158197,1.67316594 C15.2693365,1.85165381 15.0313527,2.03864109 14.8103677,2.23412781 C14.5893827,2.03014167 14.3513989,1.84315438 14.0964162,1.66466652 C12.6090173,0.610738162 10.790141,0.0497762959 8.84377329,0.0497762959 L8.59729004,0.0497762959 C6.31944489,0.0497762959 4.17759049,0.967713895 2.57969912,2.64210007 C1.00730601,4.28248856 0.14036494,6.45834065 0.14036494,8.77018349 C0.14036494,12.2889443 1.84024938,15.8926993 5.18052231,19.4879549 C7.24588191,21.7063041 9.93169933,23.9246533 13.3739653,26.2449956 L14.8018683,27.2139297 L16.2297712,26.2449956 C19.6720372,23.9161539 22.3493552,21.7063041 24.4232142,19.4879549 C27.7634871,15.8926993 29.4633716,12.2889443 29.4633716,8.77018349 C29.4633716,6.45834065 28.5964305,4.28248856 27.0240374,2.64210007 C25.4346455,0.976213317 23.2927911,0.0582757181 21.0149459,0.0582757181 L21.0149459,0.0582757181 Z" id="Shape"></path>
        </g>
    </g>
</svg>
