<svg width="28px" height="28px" viewBox="0 0 28 28" version="1.1" xmlns="http://www.w3.org/2000/svg" xmlns:xlink="http://www.w3.org/1999/xlink">
    <g id="Icons" stroke="none" stroke-width="1" fill="none" fill-rule="evenodd">
        <g transform="translate(-780.000000, -216.000000)" id="Icon---Search" fill="#161616">
            <g transform="translate(153.547901, 207.156087)">
                <g transform="translate(626.129323, 8.135986)">
                    <path d="M20.7760071,17.5674632 C21.8565151,15.867464 22.4904131,13.8505158 22.4904131,11.6822966 C22.4904131,5.62424866 17.584907,0.7115392 11.5340625,0.7115392 C5.47601461,0.7115392 0.57050853,5.62424866 0.57050853,11.6822966 C0.57050853,17.7403444 5.47601461,22.6530539 11.5268591,22.6530539 C13.7238919,22.6530539 15.7696536,22.0047491 17.4840596,20.8954276 L17.9810932,20.5496651 L25.8039708,28.3725426 L28.231512,25.9017811 L20.4158378,18.0789036 L20.7760071,17.5674632 L20.7760071,17.5674632 Z M17.6713476,5.5522148 C19.3065163,7.18738349 20.2069396,9.36280616 20.2069396,11.6750932 C20.2069396,13.9873802 19.3065163,16.1628028 17.6713476,17.7979715 C16.0361789,19.4331402 13.8607563,20.3335635 11.5484693,20.3335635 C9.23618226,20.3335635 7.0607596,19.4331402 5.4255909,17.7979715 C3.79042221,16.1628028 2.88999892,13.9873802 2.88999892,11.6750932 C2.88999892,9.36280616 3.79042221,7.18738349 5.4255909,5.5522148 C7.0607596,3.91704611 9.23618226,3.01662282 11.5484693,3.01662282 C13.8607563,3.01662282 16.0361789,3.91704611 17.6713476,5.5522148 L17.6713476,5.5522148 Z" id="Shape"></path>
                </g>
            </g>
        </g>
    </g>
</svg>
